<?xml version="1.0" encoding="UTF-8"?>
<svg width="91px" height="64px" viewBox="0 0 91 64" version="1.1" xmlns="http://www.w3.org/2000/svg" xmlns:xlink="http://www.w3.org/1999/xlink">
    <title>Group 19</title>
    <g id="Page-1" stroke="none" stroke-width="1" fill="none" fill-rule="evenodd">
        <g id="DESKTOP" transform="translate(-934.000000, -1571.000000)">
            <g id="Group-30" transform="translate(280.000000, 1258.000000)">
                <g id="Group-5" transform="translate(517.000000, 293.000000)">
                    <g id="Group-27" transform="translate(130.000000, 0.000000)">
                        <g id="Group-19" transform="translate(7.000000, 21.000000)">
                            <path d="M85.5882353,58 C88.025,58 90,56.1435392 90,53.8530288 L90,8.23634558 C90,6.71026018 88.6823529,5.47169811 87.0588235,5.47169811 L85.5882353,58 Z M15,11.047619 L15,51.0952381 C15,54.9080476 18.0975779,58 21.9204152,58 L85.5882353,58 C83.2948097,58 81.4359862,56.145381 81.4359862,53.8571429 L81.4359862,2.76190476 C81.4359862,1.23733333 80.1958478,0 78.6678201,0 L62.0588235,0 L56.5224913,8.28571429 L17.7681661,8.28571429 C16.2401384,8.28571429 15,9.52304762 15,11.047619 Z" id="Stroke-74" stroke="#62E0D9" stroke-width="1.40487805" stroke-linecap="round" stroke-linejoin="round"></path>
                            <g id="Group-18" transform="translate(25.000000, 24.000000)">
                                <path d="M16.2805296,2.56095439 L16.2805296,5.76214737 C16.2805296,6.82302272 17.1214816,7.68286316 18.1590523,7.68286316 L21.2899233,7.68286316 M23.7946202,7.68286316 L23.7946202,7.46326132 C23.7946202,6.78396817 23.5310009,6.13220528 23.0613702,5.65202633 L18.2667542,0.750359635 C17.7964974,0.270180688 17.1596782,0 16.4953074,0 L2.50469686,0 C1.12147802,0 0,1.14666733 0,2.56095439 L0,29.4509754 C0,30.8652625 1.12147802,32.0119298 2.50469686,32.0119298 L21.2899233,32.0119298 C22.6731422,32.0119298 23.7946202,30.8652625 23.7946202,29.4509754 L23.7946202,20.4876351" id="Stroke-58" fill="#62E0D9"></path>
                                <path d="M8.76643902,24.3290667 L8.76643902,28.1704982 L12.5234843,28.1704982 L24.4207944,16.0059649 L20.6637491,12.1645333 L8.76643902,24.3290667 Z M24.4207944,16.0059649 L25.7489099,14.6480188 C26.4827861,13.8976592 26.4827861,12.6818461 25.7489099,11.9314865 L24.6487218,10.8065873 C23.9148457,10.0562276 22.7257408,10.0562276 21.9918646,10.8065873 L20.6637491,12.1645333 L24.4207944,16.0059649 Z" id="Stroke-59" stroke="#FFFFFF" stroke-width="0.802787456" stroke-linejoin="round"></path>
                                <path d="M5.00939373,12.8047719 L17.532878,12.8047719 M5.00939373,16.6462035 L16.2805296,16.6462035 M5.00939373,20.4876351 L12.5234843,20.4876351" id="Stroke-60" stroke="#FFFFFF" stroke-width="0.802787456" stroke-linecap="round" stroke-linejoin="round"></path>
                            </g>
                            <g id="Group-17" transform="translate(0.000000, 37.000000)">
                                <path d="M32.3668293,21.4320802 C32.3668293,23.4044269 30.7562798,25.0040936 28.7705149,25.0040936 L3.59631436,25.0040936 C1.61054945,25.0040936 0,23.4044269 0,21.4320802 L0,3.57201337 C0,1.59966665 1.61054945,0 3.59631436,0 L28.7705149,0 C30.7562798,0 32.3668293,1.59966665 32.3668293,3.57201337 L32.3668293,21.4320802 Z M10.7889431,6.54869117 C10.7889431,8.19241266 9.44691845,9.52536898 7.79201445,9.52536898 C6.13711046,9.52536898 4.79508582,8.19241266 4.79508582,6.54869117 C4.79508582,4.90496969 6.13711046,3.57201337 7.79201445,3.57201337 C9.44691845,3.57201337 10.7889431,4.90496969 10.7889431,6.54869117 Z" id="Stroke-33" fill="#62E0D9"></path>
                                <polyline id="Stroke-34" stroke="#FFFFFF" stroke-width="0.65" stroke-linecap="round" stroke-linejoin="round" points="26.7863415 20.6555556 19.7373042 13.200919 16.8002054 16.3070175 12.688267 11.9584795 4.46439024 20.6555556"></polyline>
                            </g>
                        </g>
                    </g>
                </g>
            </g>
        </g>
    </g>
</svg>