<?xml version="1.0" encoding="UTF-8"?>
<svg width="70px" height="88px" viewBox="0 0 70 88" version="1.1" xmlns="http://www.w3.org/2000/svg" xmlns:xlink="http://www.w3.org/1999/xlink">
    <title>Group 11</title>
    <g id="Page-1" stroke="none" stroke-width="1" fill="none" fill-rule="evenodd">
        <g id="DESKTOP" transform="translate(-934.000000, -1267.000000)" stroke="#62E0D9" stroke-width="3.06382979">
            <g id="Group-30" transform="translate(280.000000, 1258.000000)">
                <g id="Group-6" transform="translate(496.000000, 0.000000)">
                    <g id="Group-25" transform="translate(140.000000, 0.000000)">
                        <g id="Group-11" transform="translate(19.914894, 11.063830)">
                            <polygon id="Path" points="41.7880851 33.43748 29.5575566 45.9115601 20.5594509 36.7342713 16.0603981 41.3229157 29.5575566 55.0888489 50.1641181 34.0730323 45.6639945 29.484388"></polygon>
                            <path d="M55.00151,7.78606245 C49.6587509,7.78606245 44.3481126,6.6503675 39.5192862,4.30253661 C37.2065889,3.18868196 34.8403569,1.76906328 32.7953329,0 C30.7503089,1.76906328 28.3840769,3.18868196 26.0703089,4.30253661 C21.2425532,6.6503675 15.9319149,7.78606245 10.5891558,7.78606245 L0,7.78606245 L0,48.3762365 C0,55.4852501 2.81592313,62.32126 7.82569664,67.2691771 C15.1824296,74.5190605 32.7953329,83.9431445 32.7953329,83.9431445 C32.7953329,83.9431445 50.4082361,74.5190605 57.7638984,67.2691771 C62.7747426,62.32126 65.5906658,55.4852501 65.5906658,48.3762365 L65.5906658,7.78606245 L55.00151,7.78606245 Z" id="Path"></path>
                            <path d="M57.0251201,22.4681956 L57.0251201,48.716945 C57.0251201,53.4595634 55.1224983,58.0580359 51.8065614,61.331895 C47.1940151,65.8790428 36.6787371,72.1013407 32.7964036,74.331234 C28.9097872,72.0991567 18.3859437,65.8692147 13.7787509,61.328619 C10.4649554,58.0558519 8.56554564,53.4595634 8.56554564,48.716945 L8.56554564,16.8628859 L10.5891558,16.8628859 C17.295978,16.8628859 23.923569,15.3646422 29.7556349,12.5297729 C30.8017021,12.0263542 31.8231434,11.4858071 32.7964036,10.9201437 C33.768593,11.4847151 34.7964585,12.0296303 35.8596568,12.542877 C41.6745916,15.3690102 48.293617,16.8628859 55.00151,16.8628859 L57.0251201,16.8628859 L57.0251201,22.4681956 Z" id="Path"></path>
                        </g>
                    </g>
                </g>
            </g>
        </g>
    </g>
</svg>